#define screen_bg_width 128
#define screen_bg_height 64
static char screen_bg_bits[] = {
  0x00, 0x00, 0x00, 0x00, 0x00, 0x00, 0x00, 0x00, 0x00, 0x00, 0x00, 0x00, 
  0x00, 0x00, 0x00, 0x00, 0x38, 0x04, 0x0F, 0xFE, 0x03, 0x00, 0x00, 0x00, 
  0x00, 0x00, 0x00, 0x80, 0x7B, 0x20, 0x00, 0x00, 0x44, 0xC4, 0x30, 0x06, 
  0x03, 0x00, 0x00, 0x00, 0x00, 0x00, 0x00, 0x00, 0x89, 0x68, 0x00, 0x00, 
  0x28, 0x25, 0x40, 0x8A, 0x02, 0x00, 0x00, 0x00, 0x00, 0x00, 0x00, 0x00, 
  0x89, 0xB0, 0x00, 0x00, 0x10, 0x05, 0x0F, 0x52, 0x02, 0x00, 0x00, 0x00, 
  0x00, 0x00, 0x00, 0x00, 0x79, 0x60, 0x00, 0x00, 0x50, 0x85, 0x10, 0x22, 
  0x02, 0x00, 0x00, 0x00, 0x00, 0x00, 0x00, 0x00, 0x29, 0xB0, 0x00, 0x00, 
  0x50, 0x05, 0x00, 0x02, 0x02, 0x00, 0x00, 0x00, 0x00, 0x00, 0x00, 0x00, 
  0x49, 0x68, 0x00, 0x00, 0x50, 0x05, 0x06, 0xFE, 0x03, 0x00, 0x00, 0x00, 
  0x00, 0x00, 0x00, 0x80, 0x8B, 0x20, 0x00, 0x00, 0x00, 0x00, 0x00, 0x00, 
  0x00, 0x00, 0x00, 0x00, 0x00, 0x00, 0x00, 0x00, 0x00, 0x00, 0x00, 0x00, 
  0xFF, 0xFF, 0xFF, 0xFF, 0xFF, 0xFF, 0xFF, 0xFF, 0xFF, 0xFF, 0xFF, 0xFF, 
  0xFF, 0xFF, 0xFF, 0xFF, 0x00, 0x00, 0x00, 0x00, 0x00, 0x00, 0x00, 0x00, 
  0x00, 0x00, 0x00, 0x80, 0x00, 0x00, 0x00, 0x00, 0x20, 0x02, 0x00, 0x00, 
  0x00, 0x00, 0x00, 0x00, 0x00, 0x00, 0x00, 0x80, 0x00, 0x00, 0x00, 0x00, 
  0xF8, 0x0F, 0x00, 0x00, 0x00, 0x00, 0x00, 0x00, 0x00, 0x00, 0x00, 0x80, 
  0x00, 0x88, 0x08, 0x00, 0x28, 0x0A, 0x00, 0x00, 0x00, 0x00, 0x00, 0x00, 
  0x00, 0x00, 0x00, 0x80, 0x00, 0x90, 0x04, 0x00, 0x08, 0x08, 0x00, 0x00, 
  0x00, 0x00, 0x00, 0x00, 0x00, 0x00, 0x00, 0x80, 0x00, 0xC0, 0x01, 0x00, 
  0xA8, 0x0A, 0x00, 0x00, 0x00, 0x00, 0x00, 0x00, 0x00, 0x00, 0x00, 0x80, 
  0x00, 0x20, 0x02, 0x00, 0x08, 0x08, 0x00, 0x00, 0x00, 0x00, 0x00, 0x00, 
  0x00, 0x00, 0x00, 0x80, 0x00, 0x38, 0x0E, 0x00, 0xA8, 0x0A, 0x00, 0x00, 
  0x00, 0x00, 0x00, 0x00, 0x00, 0x00, 0x00, 0x80, 0x00, 0x20, 0x02, 0x00, 
  0x08, 0x08, 0x00, 0x00, 0x00, 0x00, 0x00, 0x00, 0x00, 0x00, 0x00, 0x80, 
  0x00, 0xC0, 0x01, 0x00, 0xF8, 0x0F, 0x00, 0x00, 0x00, 0x00, 0x00, 0x00, 
  0x00, 0x00, 0x00, 0x80, 0x00, 0x90, 0x04, 0x00, 0x00, 0x00, 0x00, 0x00, 
  0x00, 0x00, 0x00, 0x00, 0x00, 0x00, 0x00, 0x80, 0x00, 0x88, 0x08, 0x00, 
  0xFF, 0xFF, 0xFF, 0xFF, 0xFF, 0xFF, 0xFF, 0xFF, 0xFF, 0xFF, 0xFF, 0xFF, 
  0x00, 0x00, 0x00, 0x00, 0x00, 0x00, 0x00, 0x00, 0x00, 0x00, 0x00, 0x00, 
  0x00, 0x00, 0x00, 0x80, 0x00, 0x00, 0x80, 0x01, 0x00, 0x00, 0x00, 0x00, 
  0x00, 0x00, 0x00, 0x00, 0x00, 0x00, 0x00, 0x80, 0x00, 0x01, 0x9C, 0x39, 
  0xB8, 0x07, 0xE2, 0x38, 0x40, 0x38, 0x0E, 0x90, 0x8F, 0x00, 0x71, 0x9C, 
  0x80, 0x01, 0x02, 0x44, 0x90, 0x08, 0x13, 0x45, 0x60, 0x04, 0x11, 0x18, 
  0xC8, 0x80, 0x89, 0x82, 0x40, 0x11, 0x02, 0x04, 0x90, 0x08, 0x12, 0x41, 
  0x40, 0x04, 0x11, 0x10, 0x84, 0x00, 0x81, 0x82, 0x2E, 0xA9, 0x1E, 0x04, 
  0x90, 0x07, 0xE2, 0x39, 0x40, 0x3C, 0x0E, 0x10, 0x86, 0x00, 0x71, 0x9E, 
  0xE0, 0x43, 0x22, 0x04, 0x90, 0x00, 0x02, 0x05, 0x40, 0x44, 0x11, 0x10, 
  0x88, 0x00, 0x09, 0xA2, 0x00, 0x01, 0x22, 0x44, 0x90, 0x00, 0x02, 0x05, 
  0x46, 0x44, 0x91, 0x91, 0x88, 0x18, 0x09, 0xA2, 0x00, 0x01, 0x1C, 0x38, 
  0xB8, 0x00, 0xE7, 0x7C, 0xE6, 0x38, 0x8E, 0x39, 0xCF, 0x99, 0xFB, 0x9C, 
  0x00, 0x00, 0x00, 0x00, 0x00, 0x00, 0x00, 0x00, 0x00, 0x00, 0x00, 0x00, 
  0x00, 0x00, 0x00, 0x80, 0x00, 0x00, 0x00, 0x00, 0x00, 0x00, 0x00, 0x00, 
  0x00, 0x00, 0x00, 0x00, 0x00, 0x00, 0x00, 0x80, 0x00, 0x00, 0x00, 0x00, 
  0xFF, 0xFF, 0xFF, 0xFF, 0xFF, 0xFF, 0xFF, 0xFF, 0xFF, 0xFF, 0xFF, 0xFF, 
  0x00, 0x00, 0x00, 0x00, 0x00, 0x00, 0x00, 0x00, 0x00, 0x00, 0x00, 0x00, 
  0x00, 0x00, 0x00, 0x80, 0x00, 0x00, 0x00, 0x00, 0x50, 0x01, 0x00, 0x00, 
  0x00, 0x00, 0x00, 0x00, 0x00, 0x00, 0x00, 0x80, 0x00, 0x00, 0x00, 0x00, 
  0x00, 0x80, 0xCF, 0x79, 0x3E, 0x07, 0x1C, 0x38, 0x88, 0x13, 0x45, 0x80, 
  0x00, 0x00, 0x00, 0x00, 0xF4, 0x85, 0x20, 0x8A, 0xA0, 0x08, 0x22, 0x44, 
  0x4C, 0xB4, 0x45, 0x80, 0x00, 0x00, 0x00, 0x00, 0x10, 0x81, 0x20, 0x88, 
  0x10, 0x08, 0x3A, 0x40, 0x4A, 0x56, 0x45, 0x9F, 0x00, 0x00, 0x00, 0x00, 
  0x14, 0x85, 0xC7, 0x79, 0x18, 0x07, 0x2A, 0x38, 0x49, 0x55, 0x7D, 0x88, 
  0x00, 0x00, 0x00, 0x00, 0x10, 0x81, 0x00, 0x0A, 0xA0, 0x00, 0x1A, 0x04, 
  0xDF, 0x14, 0x45, 0x84, 0x00, 0x00, 0x00, 0x00, 0xF4, 0x85, 0x20, 0x0A, 
  0xA2, 0x00, 0x02, 0x04, 0x48, 0x14, 0x45, 0x82, 0x00, 0x00, 0x00, 0x00, 
  0x00, 0x80, 0xCF, 0x09, 0xBC, 0x0F, 0x3C, 0x7C, 0x88, 0x13, 0x45, 0x9F, 
  0x00, 0x00, 0x00, 0x00, 0x50, 0x01, 0x00, 0x00, 0x00, 0x00, 0x00, 0x00, 
  0x00, 0x00, 0x00, 0x80, 0x00, 0x00, 0x00, 0x00, 0x00, 0x00, 0x00, 0x00, 
  0x00, 0x00, 0x00, 0x00, 0x00, 0x00, 0x00, 0x80, 0x00, 0x00, 0x00, 0x00, 
  0xFF, 0xFF, 0xFF, 0xFF, 0xFF, 0xFF, 0xFF, 0xFF, 0xFF, 0xFF, 0xFF, 0xFF, 
  0xFF, 0xFF, 0xFF, 0xFF, 0x00, 0x00, 0x00, 0x04, 0x00, 0x00, 0x04, 0x00, 
  0x00, 0x40, 0x00, 0x00, 0x40, 0x00, 0x00, 0x00, 0x00, 0xFE, 0x03, 0x04, 
  0xE0, 0x03, 0x04, 0xF0, 0x1F, 0x40, 0x00, 0x08, 0x40, 0x00, 0x49, 0x00, 
  0x00, 0x01, 0x04, 0x04, 0xF0, 0x07, 0x04, 0x10, 0x10, 0x40, 0x80, 0x28, 
  0x40, 0x80, 0x4B, 0x00, 0x00, 0x09, 0x04, 0x04, 0x10, 0x04, 0x04, 0x50, 
  0x10, 0x40, 0x40, 0x44, 0x40, 0x00, 0x49, 0x00, 0x00, 0x1D, 0x04, 0x04, 
  0x10, 0x04, 0x04, 0x90, 0x10, 0x40, 0x20, 0x84, 0x40, 0x00, 0xE9, 0x00, 
  0x00, 0x49, 0x05, 0x04, 0x38, 0x0E, 0x04, 0x50, 0x16, 0x40, 0x40, 0x44, 
  0x40, 0x00, 0x49, 0x00, 0x00, 0x01, 0x04, 0x04, 0x38, 0x0E, 0x04, 0x10, 
  0x10, 0x40, 0x80, 0x22, 0x40, 0x00, 0x5D, 0x00, 0x00, 0xFE, 0x03, 0x04, 
  0x38, 0x0E, 0x04, 0xF0, 0x1F, 0x40, 0x00, 0x02, 0x40, 0x00, 0x49, 0x00, 
  0x00, 0x00, 0x00, 0x04, 0x30, 0x06, 0x04, 0x00, 0x00, 0x40, 0x00, 0x00, 
  0x40, 0x00, 0x00, 0x00, 0x00, 0x00, 0x00, 0x04, 0x00, 0x00, 0x04, 0x00, 
  0x00, 0x40, 0x00, 0x00, 0x40, 0x00, 0x00, 0x00, 0x3C, 0x22, 0xFA, 0x44, 
  0xF4, 0x7C, 0xE4, 0x21, 0x9C, 0x48, 0x38, 0xCF, 0x47, 0xCF, 0xF3, 0x7D, 
  0x22, 0x65, 0x0B, 0xC4, 0x16, 0x41, 0x24, 0x52, 0xA2, 0x48, 0x10, 0x51, 
  0x40, 0x51, 0x14, 0x04, 0x82, 0xA8, 0x0A, 0x44, 0x15, 0x21, 0x24, 0x8A, 
  0x82, 0x48, 0x10, 0x51, 0x40, 0x51, 0x14, 0x04, 0x82, 0xA8, 0x7A, 0x44, 
  0xF5, 0x30, 0xE4, 0x89, 0x9C, 0x4F, 0x10, 0xD1, 0x43, 0xCF, 0xF3, 0x3C, 
  0xB2, 0x2F, 0x0A, 0x44, 0x14, 0x40, 0x24, 0xFA, 0xA0, 0x48, 0x10, 0x51, 
  0x40, 0x41, 0x11, 0x04, 0xA2, 0x28, 0x0A, 0x44, 0x14, 0x44, 0x24, 0x8A, 
  0xA2, 0x48, 0x10, 0x51, 0x40, 0x41, 0x12, 0x04, 0xBC, 0x28, 0xFA, 0x44, 
  0x14, 0x78, 0xE4, 0x89, 0x9C, 0x48, 0x38, 0xCF, 0x47, 0x41, 0xF4, 0x05, 
  0x00, 0x00, 0x00, 0x04, 0x00, 0x00, 0x04, 0x00, 0x00, 0x40, 0x00, 0x00, 
  0x40, 0x00, 0x00, 0x00, };
